<svg width="39" height="39" viewBox="0 0 39 39" fill="none" xmlns="http://www.w3.org/2000/svg">
<path d="M38 19.5C38 29.7173 29.7173 38 19.5 38C9.28273 38 1 29.7173 1 19.5C1 9.28273 9.28273 1 19.5 1C29.7173 1 38 9.28273 38 19.5Z" fill="white" stroke="#E5E5E5" stroke-width="2"/>
<path d="M38 19.5C38 29.7173 29.7173 38 19.5 38C9.28273 38 1 29.7173 1 19.5C1 9.28273 9.28273 1 19.5 1C29.7173 1 38 9.28273 38 19.5Z" fill="white" stroke="#E5E5E5" stroke-width="2"/>
<path fill-rule="evenodd" clip-rule="evenodd" d="M30 21H10V23H30V21ZM30 16H10V18H30V16Z" fill="#23171B"/>
</svg>
